# xmcd
#
# Track frame offsets: 
#        150
#        13387
#        25590
#        37505
#        50877
#        63492
#        72315
#        85085
#        96642
#        110367
#        123742
#        137435
#        147945
#        162522
#        172617
#        185037
#        195705
#        207350
#        219822
#        227905
#        240847
#        254595
#        267682
#        280812
#        295327
#        308092
#
# Disc length: 4260 seconds
#
# Revision: 8
# Processed by: cddbd v1.5.2PL0 Copyright (c) Steve Scherf et al.
# Submitted via: ExactAudioCopyFreeDBPlugin 1.0
#
DISCID=8510a21a
DTITLE=Howlin' Wolf - Howlin' Wolf:  The Chess Box
DYEAR=1991
DGENRE=Blues
TTITLE0=Moanin' at Midnight
TTITLE1=How Many More Years
TTITLE2=Howlin' Wolf Boogie
TTITLE3=The Wolf is at Your Door
TTITLE4=Mr. Highway Man
TTITLE5=Howlin' Wolf Talks #1
TTITLE6=Bluebird
TTITLE7=Saddle My Pony
TTITLE8=(Well) That's All Right
TTITLE9=My Last Affair
TTITLE10=Just My Kind
TTITLE11=Work for Your Money
TTITLE12=Mama Died and Left Me
TTITLE13=All Night Boogie (All Night Long)
TTITLE14=Streamline Woman
TTITLE15=Crazy About You, Baby
TTITLE16=You Gonna Wreck My Life (No Place to Go) (alternate take)
TTITLE17=Neighbors
TTITLE18=Howlin' Wolf Talks #2
TTITLE19=I'm the Wolf
TTITLE20=Rockin' Daddy
TTITLE21=Baby, How Long
TTITLE22=Evil (Is Going On)
TTITLE23=I'll Be Around
TTITLE24=Forty Four
TTITLE25=Who Will Be Next
EXTD=
EXTT0=
EXTT1=
EXTT2=
EXTT3=
EXTT4=
EXTT5=
EXTT6=
EXTT7=
EXTT8=
EXTT9=
EXTT10=
EXTT11=
EXTT12=
EXTT13=
EXTT14=
EXTT15=
EXTT16=
EXTT17=
EXTT18=
EXTT19=
EXTT20=
EXTT21=
EXTT22=
EXTT23=
EXTT24=
EXTT25=
PLAYORDER=
